<svg width="723" height="467" viewBox="0 0 723 467" fill="none" xmlns="http://www.w3.org/2000/svg">
<g clip-path="url(#clip0_164_153)">
<path d="M692.015 120.082H111.339C105.945 120.088 100.774 122.233 96.9601 126.046C93.1462 129.859 91.0006 135.029 90.9941 140.422V446.66C90.9898 451.841 92.973 456.827 96.5353 460.591C96.894 460.976 97.2706 461.344 97.6561 461.684C101.389 465.109 106.272 467.007 111.339 467H692.015C697.409 466.993 702.58 464.848 706.393 461.035C710.207 457.222 712.353 452.053 712.359 446.66C726.547 345.073 726.547 242.008 712.359 140.422C712.353 135.029 710.207 129.859 706.393 126.046C702.58 122.233 697.409 120.088 692.015 120.082Z" fill="#407BFF"/>
<path d="M665.116 87.8103H84.4398C79.0461 87.8168 73.8751 89.9618 70.0612 93.7749C66.2472 97.588 64.1017 102.758 64.0952 108.15V414.389C64.0909 419.57 66.0741 424.556 69.6364 428.319C69.995 428.704 70.3716 429.072 70.7572 429.413C74.4897 432.838 79.3734 434.735 84.4398 434.729H665.116C670.51 434.722 675.681 432.577 679.495 428.764C683.309 424.951 685.454 419.781 685.461 414.389V108.15C685.454 102.758 683.309 97.588 679.495 93.7749C675.681 89.9618 670.51 87.8168 665.116 87.8103Z" fill="#E9E9E9"/>
<path d="M426.37 291.891C425.953 291.91 425.54 291.801 425.188 291.578C424.835 291.355 424.56 291.029 424.399 290.644C424.238 290.259 424.199 289.834 424.288 289.426C424.377 289.019 424.589 288.648 424.895 288.365L425.034 287.811C425.016 287.767 424.998 287.722 424.979 287.678C424.559 286.687 423.856 285.841 422.957 285.248C422.058 284.655 421.004 284.341 419.927 284.345C418.85 284.349 417.798 284.671 416.904 285.271C416.009 285.87 415.312 286.721 414.9 287.715C413.251 291.685 411.152 295.661 410.635 299.858C410.408 301.714 410.504 303.594 410.919 305.417C407.047 296.972 405.037 287.795 405.024 278.505C405.023 276.174 405.152 273.845 405.412 271.528C405.626 269.629 405.923 267.744 406.304 265.872C408.379 255.714 412.835 246.193 419.305 238.092C422.436 236.383 424.969 233.756 426.561 230.565C427.138 229.417 427.546 228.193 427.772 226.929C427.418 226.975 426.44 221.596 426.706 221.266C426.214 220.519 425.333 220.148 424.795 219.419C422.121 215.794 418.437 216.427 416.513 221.353C412.405 223.426 412.365 226.864 414.886 230.171C416.49 232.275 416.71 235.121 418.118 237.374C417.973 237.559 417.822 237.738 417.677 237.924C415.031 241.326 412.724 244.98 410.79 248.832C411.261 244.516 410.699 240.151 409.153 236.094C407.585 232.314 404.647 229.13 402.06 225.861C401.376 224.983 400.446 224.328 399.39 223.978C398.333 223.628 397.196 223.599 396.123 223.895C395.049 224.191 394.088 224.798 393.36 225.64C392.632 226.482 392.17 227.521 392.032 228.625C392.027 228.673 392.022 228.722 392.017 228.77C392.401 228.987 392.777 229.217 393.145 229.46C393.608 229.769 393.966 230.21 394.173 230.726C394.38 231.242 394.427 231.808 394.307 232.351C394.186 232.894 393.905 233.388 393.499 233.768C393.093 234.148 392.582 234.397 392.032 234.482L391.976 234.49C392.113 235.875 392.355 237.247 392.7 238.595C389.381 251.428 396.547 256.102 406.778 256.312C407.004 256.428 407.224 256.544 407.45 256.654C405.507 262.159 404.289 267.892 403.825 273.711C403.562 277.144 403.578 280.593 403.871 284.023L403.854 283.901C403.113 280.087 401.077 276.645 398.092 274.157C393.657 270.515 387.392 269.174 382.608 266.247C382.1 265.92 381.509 265.746 380.905 265.745C380.3 265.743 379.708 265.914 379.198 266.238C378.688 266.562 378.282 267.025 378.026 267.572C377.771 268.12 377.677 268.729 377.756 269.328L377.776 269.456C378.489 269.746 379.184 270.08 379.855 270.457C380.239 270.674 380.616 270.904 380.984 271.147C381.446 271.456 381.804 271.898 382.012 272.413C382.219 272.929 382.265 273.496 382.145 274.039C382.025 274.581 381.743 275.075 381.337 275.455C380.932 275.836 380.42 276.084 379.871 276.169L379.814 276.178C379.774 276.183 379.739 276.189 379.699 276.195C380.917 279.104 382.627 281.781 384.754 284.11C386.83 295.313 395.744 296.375 405.279 293.113H405.284C406.33 297.658 407.846 302.082 409.807 306.314H425.965C426.023 306.135 426.075 305.949 426.127 305.77C424.631 305.864 423.13 305.774 421.656 305.504C422.855 304.033 424.054 302.551 425.252 301.08C425.279 301.053 425.304 301.024 425.328 300.993C425.936 300.241 426.55 299.494 427.158 298.741L427.158 298.74C427.191 296.433 426.925 294.131 426.37 291.891Z" fill="#407BFF"/>
<path d="M685.461 319.986V352.535C685.454 357.927 683.309 363.097 679.495 366.91C675.681 370.723 670.51 372.868 665.116 372.875H84.4398C79.3734 372.882 74.4897 370.984 70.7572 367.559C70.3716 367.218 69.995 366.851 69.6364 366.465C66.0741 362.702 64.0909 357.716 64.0952 352.535V319.986C240.867 290.799 458.264 300.68 685.461 319.986Z" fill="#3F3D56"/>
<path d="M685.461 355.843V388.392C685.454 393.785 683.309 398.954 679.495 402.767C675.681 406.581 670.51 408.726 665.116 408.732H84.4398C79.3734 408.739 74.4897 406.841 70.7572 403.416C70.3716 403.076 69.995 402.708 69.6364 402.323C66.0741 398.559 64.0909 393.574 64.0952 388.392V355.843C226.807 334.074 448.227 341.083 685.461 355.843Z" fill="#E9E9E9"/>
<path d="M685.461 381.839V414.389C685.454 419.781 683.309 424.951 679.495 428.764C675.681 432.577 670.51 434.722 665.116 434.729H84.4398C79.3734 434.735 74.4897 432.838 70.7572 429.413C70.3716 429.072 69.995 428.705 69.6364 428.319C66.0741 424.556 64.0909 419.57 64.0952 414.389V381.839C240.149 363.56 454.644 367.898 685.461 381.839Z" fill="#3F3D56"/>
<path d="M637.078 287.409C636.661 287.428 636.248 287.319 635.896 287.096C635.543 286.873 635.268 286.547 635.107 286.162C634.946 285.777 634.907 285.352 634.996 284.944C635.085 284.537 635.297 284.166 635.603 283.883L635.742 283.329C635.724 283.285 635.706 283.24 635.687 283.196C635.267 282.204 634.564 281.359 633.665 280.766C632.766 280.173 631.712 279.859 630.635 279.863C629.558 279.867 628.506 280.189 627.612 280.789C626.717 281.388 626.02 282.239 625.608 283.233C623.959 287.203 621.86 291.179 621.343 295.376C621.116 297.232 621.212 299.112 621.627 300.935C617.755 292.49 615.745 283.312 615.732 274.023C615.731 271.692 615.86 269.363 616.12 267.046C616.334 265.147 616.631 263.262 617.012 261.389C619.087 251.232 623.543 241.711 630.013 233.609C633.144 231.901 635.677 229.274 637.269 226.083C637.846 224.935 638.254 223.711 638.48 222.446C638.126 222.493 637.148 217.114 637.414 216.784C636.922 216.037 636.041 215.666 635.503 214.937C632.829 211.312 629.145 211.945 627.221 216.871C623.113 218.944 623.073 222.382 625.594 225.689C627.198 227.793 627.418 230.639 628.826 232.891C628.681 233.077 628.53 233.256 628.385 233.442C625.739 236.844 623.432 240.498 621.498 244.35C621.969 240.034 621.407 235.668 619.861 231.612C618.293 227.831 615.355 224.647 612.768 221.379C612.084 220.501 611.154 219.846 610.098 219.496C609.041 219.146 607.904 219.117 606.831 219.413C605.757 219.708 604.796 220.316 604.068 221.158C603.34 222 602.878 223.039 602.74 224.143C602.735 224.191 602.73 224.24 602.725 224.288C603.109 224.504 603.485 224.734 603.853 224.978C604.316 225.287 604.674 225.728 604.881 226.244C605.088 226.76 605.135 227.326 605.015 227.869C604.894 228.412 604.613 228.906 604.207 229.286C603.801 229.666 603.29 229.915 602.74 229.999L602.684 230.008C602.821 231.393 603.063 232.765 603.408 234.113C600.089 246.946 607.255 251.62 617.486 251.83C617.712 251.946 617.932 252.062 618.158 252.172C616.215 257.677 614.997 263.41 614.533 269.229C614.27 272.662 614.286 276.11 614.579 279.541L614.562 279.419C613.821 275.605 611.785 272.163 608.8 269.675C604.365 266.033 598.1 264.692 593.316 261.765C592.808 261.438 592.217 261.264 591.613 261.263C591.008 261.261 590.416 261.432 589.906 261.756C589.396 262.08 588.99 262.543 588.734 263.09C588.479 263.638 588.385 264.247 588.464 264.846L588.484 264.973C589.197 265.264 589.892 265.598 590.563 265.975C590.947 266.192 591.324 266.422 591.692 266.665C592.154 266.974 592.512 267.415 592.72 267.931C592.927 268.447 592.973 269.014 592.853 269.557C592.733 270.099 592.451 270.593 592.045 270.973C591.64 271.353 591.128 271.602 590.579 271.687L590.522 271.696C590.482 271.701 590.447 271.707 590.407 271.713C591.625 274.622 593.335 277.299 595.462 279.628C597.538 290.83 606.452 291.893 615.987 288.631H615.992C617.038 293.176 618.554 297.6 620.515 301.832H636.673C636.731 301.653 636.783 301.467 636.835 301.288C635.339 301.382 633.838 301.292 632.364 301.022C633.563 299.551 634.762 298.069 635.96 296.598C635.987 296.57 636.012 296.542 636.036 296.511C636.644 295.759 637.258 295.012 637.866 294.259L637.866 294.258C637.899 291.951 637.633 289.649 637.078 287.409Z" fill="#407BFF"/>
<path d="M626.761 324.491C626.761 324.783 626.757 325.076 626.752 325.364H567.655C566.303 325.365 564.965 325.089 563.725 324.551C562.484 324.014 561.367 323.228 560.443 322.242C560.465 321.831 560.5 321.425 560.543 321.019C562.282 304.323 584.016 279.156 593.563 291.3C603.109 303.444 626.761 306.161 626.761 324.491Z" fill="#3F3D56"/>
<path d="M658.212 324.755C658.215 324.959 658.209 325.163 658.206 325.364H617.015C616.072 325.365 615.14 325.172 614.275 324.798C613.41 324.423 612.632 323.875 611.988 323.188C612.003 322.902 612.027 322.618 612.058 322.335C613.27 310.698 631.642 290.163 635.073 301.621C643.816 330.824 658.033 313.275 658.212 324.755Z" fill="#3F3D56"/>
<path d="M665.116 87.8103H84.4398C79.0461 87.8168 73.8751 89.9618 70.0612 93.7749C66.2472 97.588 64.1017 102.758 64.0952 108.15V414.389C64.0909 419.57 66.0741 424.556 69.6364 428.319C69.995 428.704 70.3716 429.072 70.7572 429.413C74.4897 432.838 79.3734 434.735 84.4398 434.729H665.116C670.51 434.722 675.681 432.577 679.495 428.764C683.308 424.951 685.454 419.781 685.46 414.389C713.355 335.65 703.546 225.363 685.46 108.15C685.454 102.758 683.308 97.588 679.495 93.7749C675.681 89.9619 670.51 87.8168 665.116 87.8103ZM683.667 315.934C683.667 346.965 671.338 376.725 649.391 398.667C627.444 420.609 597.677 432.936 566.639 432.936H84.4398C80.078 432.943 75.8551 431.403 72.5235 428.588C71.5386 427.754 70.6404 426.823 69.8426 425.809C67.2742 422.557 65.8807 418.532 65.8885 414.389V108.15C65.8885 103.231 67.843 98.5138 71.322 95.0355C74.8011 91.5572 79.5197 89.6032 84.4398 89.6032H510.889C606.312 89.6032 683.667 166.941 683.667 262.342V315.934Z" fill="#3F3D56"/>
<path d="M195.146 392.546C195.151 392.863 195.142 393.18 195.137 393.493H131.089C129.623 393.494 128.174 393.194 126.829 392.612C125.485 392.03 124.274 391.178 123.272 390.109C123.296 389.664 123.334 389.224 123.381 388.783C125.266 370.689 143.924 367.232 159.167 356.575C176.321 344.581 194.835 371.305 195.146 392.546Z" fill="#3F3D56"/>
<path d="M209.349 384.787C209.213 384.961 209.346 385.229 209.343 385.447H164.7C163.679 385.447 162.669 385.238 161.731 384.833C160.794 384.427 159.951 383.833 159.252 383.088C159.269 382.778 159.295 382.471 159.328 382.164C160.642 369.552 171.312 360.088 184.271 359.714C208.43 359.018 220.854 370.163 209.349 384.787Z" fill="#3F3D56"/>
<path d="M215.769 313.66C215.769 313.977 215.764 314.295 215.76 314.607H151.711C150.246 314.608 148.796 314.308 147.452 313.726C146.107 313.144 144.897 312.292 143.895 311.223C143.919 310.778 143.957 310.338 144.004 309.898C145.888 291.803 166.23 285.998 179.789 277.689C193.349 269.38 215.769 293.796 215.769 313.66Z" fill="#3F3D56"/>
<path d="M229.972 305.901C229.95 306.12 229.947 306.341 229.965 306.561H185.323C184.302 306.561 183.291 306.352 182.354 305.947C181.417 305.541 180.573 304.947 179.875 304.202C179.891 303.892 179.918 303.585 179.951 303.278C181.264 290.666 192.633 285.042 204.894 280.829C225.144 273.869 233.515 288.203 229.972 305.901Z" fill="#3F3D56"/>
<path d="M260.457 318.429C260.469 318.649 260.467 318.87 260.451 319.089H215.808C214.787 319.09 213.776 318.881 212.839 318.475C211.902 318.069 211.058 317.476 210.36 316.73C210.377 316.42 210.403 316.113 210.436 315.807C211.75 303.194 226.33 302.639 235.379 293.357C243.763 284.757 258.628 301.706 260.457 318.429Z" fill="#3F3D56"/>
<path d="M522.273 215.103H504.341V434.729H522.273V215.103Z" fill="#3F3D56"/>
<path d="M640.7 116.711C640.037 103.749 635.625 90.7327 626.955 81.0781C623.171 76.8649 607.175 66.9862 602.074 64.5031C604.01 49.2728 614.429 40.4878 606.808 27.4627C597.133 10.9415 576.95 1.25107 558.004 4.03897C551.224 5.07144 544.749 7.56753 539.031 11.3538C532.486 5.6346 523.529 2.1206 514.804 0.784923C487.323 -3.4283 457.94 9.61476 442.643 32.8233C440.331 36.3314 440.174 41.5811 441.379 47.8392C446.024 71.9594 432.714 95.468 409.815 104.37C409.375 104.532 408.975 104.788 408.643 105.12C395.427 118.791 391.087 140.359 398 158.081C399.635 162.277 400.122 169.57 404.606 169.768C433.563 171.043 435.781 186.844 419.361 210.34C415.923 215.259 420.918 222.208 424.029 227.438C431.185 239.477 445.629 245.663 459.617 246.487C473.541 247.312 487.296 243.628 500.754 239.961L518.687 239.244C534.118 241.907 550.257 241.485 564.881 235.963C580.653 230.002 594.407 217.578 599.626 201.549C601.41 196.072 632.12 202.939 631.662 197.175C639.302 193.275 616.204 175.311 621.988 168.964C634.875 154.696 641.601 135.915 640.7 116.711Z" fill="#407BFF"/>
<path opacity="0.1" d="M572.047 210.305C567.919 222.985 558.44 233.394 546.855 240.147C552.71 239.431 558.459 238.027 563.985 235.963C577.421 230.885 589.373 221.104 595.851 208.411C586.749 208.42 573.214 206.723 572.047 210.305Z" fill="black"/>
<path opacity="0.1" d="M621.988 168.964C634.876 154.696 641.602 135.915 640.701 116.711C640.037 103.749 635.626 90.7327 626.955 81.0781C623.172 76.8649 607.176 66.9862 602.074 64.5031C604.011 49.2728 614.429 40.4878 606.808 27.4627C597.133 10.9415 576.95 1.25107 558.004 4.03896C551.224 5.07143 544.75 7.56752 539.032 11.3538C532.486 5.6346 523.529 2.1206 514.805 0.784918C498.945 -1.64656 482.457 1.67883 468.404 9.37899C474.952 8.50386 481.59 8.55832 488.123 9.54077C496.847 10.8764 505.805 14.3905 512.35 20.1097C518.071 16.3626 534.65 6.79713 531.323 12.7948C517.101 38.4304 533.91 51.0121 580.126 36.2185C587.486 33.8629 577.646 46.2143 566.029 60.8752C555.291 74.4276 567.175 93.9979 584.166 90.7756C592.464 89.2018 598.998 88.4138 600.274 89.834C608.944 99.4885 640.31 114.717 614.019 125.467C587.728 136.217 608.11 163.682 595.306 177.72C591.243 182.179 601.424 192.366 605.198 199.388C614.505 198.667 632.009 201.538 631.663 197.175C639.302 193.275 616.205 175.311 621.988 168.964Z" fill="black"/>
<path d="M431.703 270.507H504.719C504.957 270.507 505.185 270.412 505.353 270.244C505.521 270.076 505.615 269.848 505.615 269.61C505.615 269.373 505.521 269.145 505.353 268.976C505.185 268.808 504.957 268.714 504.719 268.714H431.703C431.465 268.714 431.237 268.808 431.069 268.976C430.901 269.145 430.807 269.373 430.807 269.61C430.807 269.848 430.901 270.076 431.069 270.244C431.237 270.412 431.465 270.507 431.703 270.507Z" fill="#3F3D56"/>
<path d="M530.558 341.797C515.754 322.111 507.197 300.096 506.917 274.997C506.44 273.645 506.519 272.158 507.137 270.864C507.755 269.57 508.861 268.573 510.213 268.093L560.673 250.243C562.026 249.766 563.513 249.846 564.807 250.463C566.102 251.081 567.099 252.187 567.579 253.539L591.22 320.339C591.697 321.691 591.617 323.178 591 324.472C590.382 325.766 589.275 326.763 587.924 327.242L537.464 345.093C536.111 345.569 534.624 345.49 533.329 344.873C532.035 344.255 531.038 343.149 530.558 341.797Z" fill="#407BFF"/>
<path d="M527.288 320.252C518.384 311.251 514.573 295.198 512.089 277.307C511.643 276.04 511.717 274.648 512.295 273.436C512.874 272.223 513.91 271.29 515.176 270.841L558.542 255.5C559.809 255.054 561.202 255.128 562.414 255.706C563.627 256.285 564.56 257.32 565.01 258.586L586.047 318.029C586.494 319.296 586.42 320.688 585.841 321.9C585.262 323.112 584.226 324.045 582.96 324.495L556.096 333.998C550.452 335.987 544.249 335.657 538.849 333.08C533.448 330.503 529.29 325.89 527.288 320.252Z" fill="#E9E9E9"/>
<path d="M565.59 290.608L531.809 302.664C531.543 302.759 531.261 302.801 530.978 302.787C530.696 302.773 530.419 302.704 530.163 302.583C529.907 302.462 529.678 302.292 529.488 302.082C529.299 301.873 529.152 301.628 529.057 301.361C528.962 301.095 528.92 300.813 528.934 300.53C528.949 300.248 529.018 299.971 529.139 299.716C529.261 299.46 529.431 299.231 529.641 299.042C529.851 298.852 530.096 298.706 530.362 298.611L564.143 286.556C564.681 286.364 565.272 286.394 565.787 286.639C566.303 286.883 566.7 287.322 566.892 287.859C567.083 288.396 567.054 288.988 566.81 289.503C566.566 290.019 566.127 290.416 565.59 290.608Z" fill="#407BFF"/>
<path d="M535.274 288.899L527.842 291.551C527.576 291.646 527.294 291.687 527.011 291.673C526.729 291.659 526.452 291.59 526.197 291.469C525.941 291.348 525.712 291.178 525.523 290.968C525.333 290.759 525.187 290.514 525.092 290.248C524.997 289.982 524.955 289.699 524.969 289.417C524.983 289.135 525.053 288.858 525.174 288.603C525.295 288.348 525.465 288.119 525.674 287.929C525.884 287.739 526.129 287.593 526.395 287.498L533.827 284.846C534.093 284.75 534.375 284.709 534.658 284.722C534.94 284.736 535.217 284.806 535.473 284.927C535.729 285.048 535.958 285.218 536.148 285.427C536.338 285.637 536.484 285.882 536.579 286.148C536.674 286.414 536.716 286.697 536.702 286.979C536.688 287.262 536.618 287.538 536.497 287.794C536.375 288.049 536.205 288.278 535.995 288.468C535.785 288.658 535.54 288.804 535.274 288.899Z" fill="#407BFF"/>
<path d="M571.952 308.426L538.171 320.481C537.904 320.576 537.622 320.618 537.34 320.604C537.057 320.591 536.78 320.521 536.524 320.4C536.269 320.279 536.04 320.109 535.85 319.9C535.66 319.69 535.513 319.445 535.418 319.179C535.323 318.912 535.282 318.63 535.296 318.348C535.31 318.065 535.38 317.788 535.501 317.533C535.622 317.278 535.792 317.048 536.002 316.859C536.212 316.669 536.457 316.523 536.724 316.428L570.505 304.373C571.042 304.181 571.634 304.21 572.15 304.455C572.666 304.699 573.063 305.138 573.255 305.676C573.447 306.213 573.418 306.805 573.173 307.321C572.929 307.836 572.489 308.234 571.952 308.426Z" fill="#407BFF"/>
<path d="M568.771 299.517L534.99 311.572C534.724 311.668 534.441 311.71 534.159 311.696C533.876 311.682 533.599 311.613 533.344 311.492C533.088 311.371 532.859 311.201 532.669 310.991C532.479 310.781 532.333 310.536 532.238 310.27C532.143 310.004 532.101 309.721 532.115 309.439C532.129 309.157 532.199 308.88 532.32 308.624C532.441 308.369 532.612 308.14 532.822 307.95C533.031 307.761 533.277 307.614 533.543 307.52L567.324 295.464C567.862 295.273 568.453 295.303 568.968 295.547C569.483 295.792 569.881 296.231 570.072 296.768C570.264 297.305 570.235 297.896 569.991 298.412C569.747 298.927 569.308 299.325 568.771 299.517Z" fill="#407BFF"/>
<path d="M509.786 282.16C514.738 282.16 518.752 278.147 518.752 273.196C518.752 268.245 514.738 264.232 509.786 264.232C504.834 264.232 500.82 268.245 500.82 273.196C500.82 278.147 504.834 282.16 509.786 282.16Z" fill="#407BFF"/>
<path d="M444.408 44.6066H371.393C371.155 44.6066 370.927 44.5121 370.759 44.344C370.591 44.1759 370.496 43.9479 370.496 43.7102C370.496 43.4724 370.591 43.2444 370.759 43.0763C370.927 42.9082 371.155 42.8137 371.393 42.8137H444.408C444.646 42.8137 444.874 42.9082 445.042 43.0763C445.21 43.2444 445.305 43.4724 445.305 43.7102C445.305 43.9479 445.21 44.1759 445.042 44.344C444.874 44.5121 444.646 44.6066 444.408 44.6066Z" fill="#3F3D56"/>
<path d="M276.972 76.4042C283.313 52.6044 295.345 32.2787 314.914 16.5552C315.683 15.3447 316.901 14.4888 318.301 14.1751C319.701 13.8615 321.168 14.1157 322.38 14.8821L367.59 43.5305C368.801 44.2997 369.657 45.5175 369.971 46.917C370.284 48.3164 370.03 49.7832 369.263 50.9954L331.321 110.844C330.552 112.055 329.334 112.911 327.934 113.224C326.534 113.538 325.067 113.284 323.855 112.517L278.645 83.8691C277.434 83.1 276.578 81.8821 276.264 80.4826C275.951 79.0832 276.205 77.6164 276.972 76.4042Z" fill="#407BFF"/>
<path d="M291.9 60.5248C293.48 47.9648 303.753 35.0526 316.292 22.0484C317.013 20.9148 318.154 20.1131 319.464 19.8194C320.775 19.5256 322.149 19.7638 323.285 20.4816L362.139 45.1024C363.273 45.8228 364.074 46.9634 364.368 48.274C364.662 49.5847 364.424 50.9583 363.706 52.0937L329.943 105.351C329.222 106.485 328.081 107.286 326.77 107.58C325.459 107.874 324.085 107.636 322.95 106.918L298.881 91.6658C293.83 88.4572 290.258 83.3766 288.949 77.5385C287.641 71.7005 288.702 65.5818 291.9 60.5248Z" fill="#E9E9E9"/>
<path d="M338.876 72.3297L308.527 53.2159C308.287 53.0654 308.08 52.8693 307.916 52.6386C307.753 52.408 307.636 52.1473 307.574 51.8717C307.511 51.596 307.503 51.3106 307.551 51.0319C307.598 50.7532 307.7 50.4866 307.851 50.2474C308.002 50.0081 308.198 49.8009 308.429 49.6376C308.66 49.4744 308.921 49.3582 309.197 49.2957C309.473 49.2332 309.758 49.2258 310.037 49.2737C310.315 49.3216 310.582 49.4239 310.821 49.5749L341.17 68.6887C341.653 68.9928 341.995 69.4763 342.122 70.0328C342.248 70.5893 342.148 71.1732 341.844 71.656C341.54 72.1389 341.056 72.4811 340.499 72.6075C339.943 72.7338 339.359 72.6339 338.876 72.3297Z" fill="#407BFF"/>
<path d="M321.494 47.437L314.818 43.232C314.335 42.9275 313.994 42.4441 313.868 41.8879C313.742 41.3317 313.842 40.7483 314.146 40.2658C314.45 39.7833 314.933 39.4412 315.489 39.3146C316.045 39.1881 316.629 39.2875 317.112 39.5909L323.789 43.796C324.272 44.1001 324.614 44.5836 324.74 45.1401C324.867 45.6966 324.767 46.2805 324.462 46.7633C324.158 47.2461 323.675 47.5884 323.118 47.7147C322.561 47.8411 321.977 47.7412 321.494 47.437Z" fill="#407BFF"/>
<path d="M328.79 88.3368L298.441 69.2229C297.959 68.9185 297.617 68.4351 297.491 67.8789C297.365 67.3227 297.465 66.7393 297.769 66.2568C298.073 65.7743 298.556 65.4322 299.113 65.3056C299.669 65.1791 300.252 65.2784 300.735 65.5819L331.084 84.6957C331.324 84.8462 331.531 85.0423 331.695 85.273C331.858 85.5036 331.975 85.7643 332.038 86.04C332.1 86.3157 332.108 86.601 332.06 86.8797C332.013 87.1584 331.911 87.425 331.76 87.6643C331.609 87.9035 331.413 88.1107 331.182 88.274C330.951 88.4372 330.69 88.5535 330.415 88.6159C330.139 88.6784 329.853 88.6859 329.575 88.638C329.296 88.5901 329.029 88.4877 328.79 88.3368Z" fill="#407BFF"/>
<path d="M333.833 80.3333L303.484 61.2194C303.001 60.9153 302.659 60.4318 302.532 59.8753C302.406 59.3188 302.506 58.7349 302.81 58.2521C303.114 57.7692 303.598 57.427 304.155 57.3007C304.711 57.1743 305.295 57.2742 305.778 57.5784L336.127 76.6922C336.367 76.8427 336.574 77.0388 336.738 77.2695C336.901 77.5001 337.018 77.7608 337.08 78.0365C337.143 78.3122 337.151 78.5975 337.103 78.8762C337.056 79.1549 336.954 79.4215 336.803 79.6607C336.652 79.9 336.456 80.1072 336.225 80.2704C335.994 80.4337 335.733 80.5499 335.457 80.6124C335.182 80.6749 334.896 80.6824 334.617 80.6345C334.339 80.5866 334.072 80.4842 333.833 80.3333Z" fill="#407BFF"/>
<path d="M366.325 56.2601C371.277 56.2601 375.292 52.2467 375.292 47.2958C375.292 42.345 371.277 38.3315 366.325 38.3315C361.373 38.3315 357.359 42.345 357.359 47.2958C357.359 52.2467 361.373 56.2601 366.325 56.2601Z" fill="#407BFF"/>
<path d="M287.03 159.994H192.098C191.555 159.994 191.034 159.778 190.65 159.394C190.266 159.01 190.05 158.49 190.05 157.947C190.05 157.404 190.266 156.884 190.65 156.5C191.034 156.116 191.555 155.9 192.098 155.9H287.03C287.573 155.9 288.094 156.116 288.477 156.5C288.861 156.884 289.077 157.404 289.077 157.947C289.077 158.49 288.861 159.01 288.477 159.394C288.094 159.778 287.573 159.994 287.03 159.994Z" fill="#407BFF"/>
<path d="M335.087 178.706H192.098C191.829 178.706 191.562 178.654 191.313 178.551C191.064 178.449 190.838 178.298 190.648 178.108C190.457 177.918 190.306 177.692 190.203 177.443C190.1 177.195 190.046 176.928 190.046 176.659C190.046 176.39 190.1 176.123 190.203 175.875C190.306 175.626 190.457 175.4 190.648 175.21C190.838 175.02 191.064 174.87 191.313 174.767C191.562 174.664 191.829 174.612 192.098 174.612H335.087C335.629 174.614 336.149 174.83 336.532 175.213C336.915 175.597 337.13 176.117 337.13 176.659C337.13 177.201 336.915 177.721 336.532 178.105C336.149 178.489 335.629 178.705 335.087 178.706Z" fill="#407BFF"/>
<path d="M335.089 193.321H192.095C191.551 193.321 191.03 193.537 190.646 193.921C190.262 194.306 190.046 194.827 190.046 195.37C190.046 195.913 190.262 196.434 190.646 196.818C191.03 197.202 191.551 197.418 192.095 197.418H335.089C335.633 197.418 336.154 197.202 336.538 196.818C336.922 196.434 337.138 195.913 337.138 195.37C337.138 194.827 336.922 194.306 336.538 193.921C336.154 193.537 335.633 193.321 335.089 193.321Z" fill="#407BFF"/>
<path d="M335.087 216.13H192.098C191.829 216.131 191.562 216.078 191.313 215.976C191.064 215.873 190.838 215.722 190.648 215.532C190.457 215.342 190.306 215.116 190.203 214.868C190.1 214.619 190.046 214.353 190.046 214.084C190.046 213.814 190.1 213.548 190.203 213.299C190.306 213.051 190.457 212.825 190.648 212.635C190.838 212.445 191.064 212.294 191.313 212.191C191.562 212.089 191.829 212.036 192.098 212.037H335.087C335.629 212.038 336.149 212.254 336.532 212.638C336.915 213.021 337.13 213.541 337.13 214.084C337.13 214.626 336.915 215.146 336.532 215.529C336.149 215.913 335.629 216.129 335.087 216.13Z" fill="#407BFF"/>
<path d="M77.1511 258.796L81.4592 223.355L69.734 222.512L67.104 259.676C66.658 260.608 66.4665 261.641 66.5489 262.67C66.6313 263.7 66.9846 264.69 67.573 265.539C68.1614 266.388 68.964 267.066 69.8992 267.505C70.8345 267.943 71.8692 268.127 72.8984 268.037C73.9276 267.947 74.9146 267.586 75.7594 266.992C76.6041 266.397 77.2765 265.589 77.7084 264.651C78.1402 263.713 78.3161 262.677 78.2182 261.649C78.1204 260.62 77.7522 259.636 77.1511 258.796Z" fill="#A0616A"/>
<path d="M92.2073 173.584C90.0269 173.287 87.8097 173.728 85.9091 174.837C84.0085 175.946 82.5339 177.659 81.7204 179.703C76.792 192.089 67.2851 216.392 67.8014 218.283C68.4966 220.83 69.1914 221.061 67.3388 221.988C65.4862 222.914 62.9384 221.294 65.4862 222.914C68.034 224.535 64.7917 224.998 65.9499 226.156C67.108 227.313 86.3308 229.857 86.3308 229.857C86.3308 229.857 82.0858 216.952 83.5122 215.069C84.9386 213.186 89.5708 215.501 87.2545 213.186C84.9382 210.871 82.7813 210.232 85.4807 209.162C88.1801 208.092 90.5447 206.909 90.5447 206.909L99.7743 187.601C100.444 186.2 100.773 184.661 100.735 183.109C100.697 181.557 100.292 180.036 99.5548 178.669C98.8172 177.303 97.7672 176.13 96.4904 175.247C95.2135 174.363 93.746 173.793 92.2073 173.584Z" fill="#407BFF"/>
<path d="M109.057 414.543L115.459 414.542L118.504 389.855H109.056L109.057 414.543Z" fill="#A0616A"/>
<path d="M108.832 421.22L128.519 421.219V420.97C128.519 418.939 127.711 416.99 126.274 415.553C124.837 414.117 122.888 413.31 120.856 413.309L117.26 410.582L110.55 413.31L108.832 413.31L108.832 421.22Z" fill="#2F2E41"/>
<path d="M6.18604 371.892L8.80599 377.732L32.5847 370.408L28.7175 361.789L6.18604 371.892Z" fill="#A0616A"/>
<path d="M0 374.418L8.05593 392.378L8.28308 392.276C10.1374 391.444 11.5854 389.911 12.3086 388.012C13.0318 386.113 12.9711 384.005 12.1396 382.151L13.1574 377.754L7.92237 372.749L7.21916 371.182L0 374.418Z" fill="#2F2E41"/>
<path d="M102.84 158.55C109.583 158.55 115.049 153.085 115.049 146.343C115.049 139.602 109.583 134.136 102.84 134.136C96.0964 134.136 90.6299 139.602 90.6299 146.343C90.6299 153.085 96.0964 158.55 102.84 158.55Z" fill="#A0616A"/>
<path d="M124.54 259.454L78.4006 257.99C78.4006 257.99 68.6376 276.878 74.6176 288.668C80.5977 300.457 75.8633 333.859 75.8633 333.859L16.1494 364.159L21.276 375.874C21.276 375.874 34.4586 375.142 36.6557 372.945C38.6902 371.161 41.275 370.127 43.9794 370.017C45.4441 370.017 88.6537 350.979 88.6537 350.979L99.88 318.463L111.271 362.879L105.685 402.348L119.019 402.699C119.019 402.699 123.618 400.389 122.248 396.918C120.878 393.447 120.169 391.937 123.453 389.031C126.737 386.125 133.096 342.124 133.096 342.124L125.554 291.35C125.554 291.35 121.061 290.087 124.857 286.659C128.652 283.232 124.774 279.143 124.774 279.143C124.774 279.143 127.984 274.603 124.732 275.332C121.479 276.061 124.54 257.99 124.54 257.99" fill="#2F2E41"/>
<path d="M114.228 166.626L97.1918 165.571L94.2129 170.5C94.2129 170.5 87.5063 170.126 88.9711 172.322C90.4358 174.519 89.5844 172.72 87.4468 174.352C85.3092 175.983 82.4226 176.273 83.8659 177.592C84.0764 177.785 83.9914 178.354 83.6926 179.186C77.7978 195.167 76.3472 212.447 79.4954 229.186C80.4965 234.282 81.1349 238 80.915 238.22C80.1826 238.952 76.5208 238.22 78.7179 240.417C80.915 242.613 84.5768 240.417 80.1826 244.81C75.7884 249.203 66.5618 267.807 77.2532 268.973C87.9446 270.138 127.786 267.508 127.054 264.579L121.928 244.078L117.752 185.088L113.569 173.821L114.228 166.626Z" fill="#407BFF"/>
<path d="M115.118 270.099L108.001 235.113L96.6104 238.019L105.864 274.108C105.736 275.133 105.881 276.174 106.285 277.125C106.688 278.076 107.336 278.903 108.163 279.522C108.989 280.142 109.965 280.532 110.991 280.652C112.017 280.773 113.057 280.62 114.005 280.21C114.953 279.799 115.775 279.145 116.389 278.314C117.002 277.483 117.385 276.504 117.498 275.477C117.611 274.451 117.451 273.412 117.033 272.468C116.615 271.523 115.954 270.706 115.118 270.099Z" fill="#A0616A"/>
<path d="M102.464 184.497C100.301 184.904 98.337 186.023 96.8844 187.676C95.4318 189.329 94.5744 191.42 94.4489 193.616C93.6889 206.925 92.3527 232.986 93.4404 234.617C94.9051 236.814 95.6375 236.814 94.1728 238.278C92.708 239.743 89.7786 239.01 92.708 239.743C95.6375 240.475 92.708 241.939 94.1728 242.671C95.6375 243.404 114.679 239.743 114.679 239.743C114.679 239.743 106.572 228.84 107.33 226.603C108.088 224.366 113.214 225.099 110.285 223.634C107.355 222.17 105.107 222.245 107.33 220.377C109.552 218.509 111.422 216.64 111.422 216.64L114.074 195.404C114.266 193.864 114.092 192.299 113.565 190.839C113.038 189.379 112.174 188.063 111.042 187C109.911 185.937 108.544 185.156 107.053 184.721C105.562 184.286 103.99 184.21 102.464 184.497Z" fill="#407BFF"/>
<path d="M106.521 158.106C104.983 159.277 103.317 160.27 101.555 161.065C99.7754 161.861 97.7779 162.026 95.892 161.534C94.9553 161.239 94.0981 160.735 93.3853 160.059C92.6725 159.384 92.1229 158.555 91.7782 157.636C91.1054 155.797 85.4854 153.65 86.5458 152.004C87.0791 151.349 87.5207 150.625 87.8583 149.851C88.0119 149.458 88.0072 149.021 87.8454 148.631C87.6835 148.242 87.3769 147.93 86.9901 147.761C86.6519 147.712 86.3071 147.778 86.011 147.949C85.715 148.119 85.4847 148.384 85.3574 148.701C85.1191 149.343 85.032 150.03 85.1027 150.711C84.5606 150.257 84.1801 149.639 84.0184 148.951C83.8566 148.263 83.9222 147.54 84.2054 146.893L82.3062 145.939C83.9455 145.301 90.1842 142.714 88.7976 141.632C87.6246 140.716 83.8489 137.741 84.2704 136.669C84.763 135.625 85.4538 134.686 86.3046 133.905C87.9418 132.196 89.727 130.402 92.0449 129.923C94.0256 129.514 96.0543 130.14 97.9999 130.693C99.9455 131.246 102.051 131.726 103.956 131.047C105.861 130.368 107.307 128.056 106.353 126.273C107.082 126.266 107.798 126.469 108.416 126.858C109.033 127.246 109.526 127.803 109.836 128.464L110.162 125.46C111.618 125.843 112.964 126.562 114.091 127.561C115.13 128.642 115.572 130.456 114.666 131.651C113.662 132.976 111.417 133.127 110.823 134.678C110.301 136.04 111.431 137.417 112.375 138.529C113.319 139.64 114.143 141.366 113.153 142.436C112.334 143.322 110.895 143.04 109.727 143.343C107.965 143.801 106.881 145.657 106.651 147.462C106.563 149.282 106.699 151.104 107.056 152.89C107.41 154.692 107.125 156.561 106.252 158.176" fill="#2F2E41"/>
<path d="M114.306 150.56C113.058 150.56 111.674 150.076 111.674 148.828V140.901C111.674 139.653 113.058 139.803 114.306 139.803C117.418 137.718 120.055 140.759 120.16 144.865C120.124 149.294 117.688 152.126 114.306 150.56Z" fill="#3F3D56"/>
<path d="M112.569 138.641H108.583C107.25 138.641 102.017 138.549 101.753 139.803C94.7201 138.558 91.9564 138.524 87.8724 140.837C87.3868 140.837 86.9211 141.03 86.5778 141.374C86.2344 141.717 86.0415 142.182 86.0415 142.668C86.0415 143.153 86.2344 143.619 86.5778 143.962C86.9211 144.306 87.3868 144.498 87.8724 144.498L100.857 144.285L105.815 148.321C105.815 148.685 105.887 149.044 106.026 149.38C106.165 149.716 106.369 150.021 106.626 150.278C106.883 150.535 107.188 150.739 107.524 150.878C107.86 151.017 108.219 151.088 108.583 151.088H112.569C112.932 151.088 113.292 151.017 113.628 150.878C113.963 150.739 114.269 150.535 114.526 150.278C114.783 150.021 114.986 149.716 115.125 149.38C115.265 149.044 115.336 148.685 115.336 148.321C114.059 145.855 113.848 143.524 115.336 141.408C115.336 141.044 115.265 140.685 115.125 140.349C114.986 140.013 114.783 139.708 114.526 139.451C114.269 139.194 113.963 138.99 113.628 138.851C113.292 138.712 112.932 138.641 112.569 138.641Z" fill="#407BFF"/>
</g>
<defs>
<clipPath id="clip0_164_153">
<rect width="723" height="467" fill="white"/>
</clipPath>
</defs>
</svg>
