<svg width="53" height="53" viewBox="0 0 53 53" fill="none" xmlns="http://www.w3.org/2000/svg">
<path d="M0.300293 0.32901V52.4378H52.4091V0.32901H0.300293ZM28.6577 40.9692C28.6577 46.0405 25.6801 48.3552 21.3415 48.3552C17.4218 48.3552 15.1536 46.3313 13.9905 43.8771L17.9801 41.4694C18.7477 42.8302 19.4456 43.9817 21.1322 43.9817C22.7373 43.9817 23.7609 43.3537 23.7609 40.8994V24.2549H28.6577V40.9692ZM40.2426 48.3552C35.6947 48.3552 32.752 46.1917 31.3213 43.3537L35.3109 41.0506C36.3577 42.7605 37.7302 44.0283 40.1379 44.0283C42.1618 44.0283 43.4645 43.0163 43.4645 41.6089C43.4645 39.934 42.1385 39.3408 39.8937 38.3521L38.6724 37.8287C35.1364 36.3283 32.7985 34.4323 32.7985 30.4428C32.7985 26.7672 35.6017 23.9757 39.9635 23.9757C43.0807 23.9757 45.3139 25.0574 46.919 27.8955L43.1039 30.3381C42.2665 28.8376 41.3592 28.2444 39.9518 28.2444C38.5212 28.2444 37.6139 29.1517 37.6139 30.3381C37.6139 31.8036 38.5212 32.3969 40.6264 33.3157L41.8477 33.8391C46.0118 35.6188 48.3497 37.4449 48.3497 41.5391C48.3497 45.9358 44.8835 48.3552 40.2426 48.3552Z" fill="#F7DF1E"/>
</svg>
