<svg width="53" height="40" viewBox="0 0 53 40" fill="none" xmlns="http://www.w3.org/2000/svg">
<path d="M24.6627 30.3682C24.6382 30.4169 24.6138 30.4576 24.6627 30.3682ZM44.9501 23.2998C43.3121 23.2994 41.6959 23.6747 40.2264 24.3966C39.7459 23.4298 39.2491 22.5849 39.1677 21.9511C39.07 21.2118 38.9641 20.7731 39.0781 19.8956C39.1921 19.0182 39.7052 17.7751 39.6971 17.6857C39.6889 17.5964 39.583 17.1495 38.5324 17.1414C37.4818 17.1333 36.5778 17.3445 36.4719 17.6207C36.2864 18.1256 36.142 18.6445 36.0403 19.1725C35.853 20.1231 33.939 23.5192 32.8558 25.2903C32.4975 24.5998 32.1962 23.9904 32.131 23.5029C32.0333 22.7636 31.9274 22.3249 32.0414 21.4474C32.1554 20.57 32.6685 19.3269 32.6604 19.2375C32.6522 19.1482 32.5464 18.7013 31.4958 18.6932C30.4451 18.6851 29.5411 18.8963 29.4352 19.1725C29.3294 19.4488 29.2153 20.0987 29.0036 20.7243C28.7918 21.3499 26.2427 27.0046 25.5748 28.4752C25.2328 29.2226 24.9396 29.8239 24.7278 30.2301C24.6953 30.2951 24.6708 30.3357 24.6545 30.3682C24.679 30.3276 24.6953 30.287 24.6953 30.3032C24.5161 30.6526 24.4102 30.8476 24.4102 30.8476V30.8557C24.2718 31.1157 24.117 31.3513 24.0437 31.3513C23.9948 31.3513 23.889 30.6688 24.0681 29.7345C24.4509 27.7683 25.3549 24.7135 25.3468 24.6079C25.3387 24.551 25.5178 24.0229 24.7523 23.7385C24.0111 23.4704 23.7424 23.9173 23.6772 23.9173C23.6121 23.9173 23.5632 24.0798 23.5632 24.0798C23.5632 24.0798 24.3858 20.635 21.9832 20.635C20.4847 20.635 18.3997 22.2761 17.3735 23.7629C16.7301 24.1123 15.3375 24.8679 13.8715 25.6722C13.3095 25.9809 12.7313 26.2978 12.1856 26.5984C12.1449 26.5578 12.1123 26.5172 12.0716 26.4765C9.15592 23.3729 3.77254 21.1793 4.00058 17.0114C4.08202 15.4921 4.6114 11.5029 14.352 6.6607C22.3334 2.6959 28.7185 3.7846 29.8099 6.20572C31.3899 9.65866 26.3974 16.0852 18.1065 17.0114C14.9465 17.3608 13.2851 16.1421 12.8697 15.6871C12.4381 15.2077 12.3729 15.1834 12.21 15.2727C11.9413 15.419 12.1123 15.8415 12.21 16.0933C12.4544 16.7352 13.4724 17.8726 15.2071 18.4413C16.7301 18.9369 20.4358 19.2132 24.9152 17.4826C29.9483 15.549 33.8657 10.1624 32.7174 5.65325C31.5609 1.07099 23.946 -0.432058 16.7464 2.11906C12.4544 3.63835 7.81212 6.02698 4.47295 9.13869C0.506676 12.8435 -0.12858 16.069 0.132037 17.4176C1.06049 22.203 7.67366 25.3228 10.3206 27.6302C10.1903 27.7033 10.0681 27.7683 9.95407 27.8333C8.62655 28.4914 3.58522 31.1238 2.32285 33.9024C0.897602 37.0547 2.55904 39.3134 3.65038 39.6221C7.0547 40.5645 10.5405 38.8665 12.4136 36.0798C14.2868 33.2931 14.0588 29.6532 13.1955 27.9958C13.1874 27.9715 13.1711 27.9552 13.1629 27.9308C13.505 27.7277 13.8552 27.5246 14.2054 27.3215C14.8814 26.9234 15.5411 26.5578 16.1193 26.2409C15.7935 27.1184 15.5573 28.1746 15.4352 29.702C15.2886 31.4894 16.0297 33.8049 16.9907 34.7148C17.4142 35.113 17.9273 35.1211 18.245 35.1211C19.3689 35.1211 19.8738 34.1949 20.4358 33.0899C21.1281 31.7413 21.7389 30.1732 21.7389 30.1732C21.7389 30.1732 20.9733 34.4142 23.0664 34.4142C23.832 34.4142 24.5975 33.4312 24.9396 32.9274V32.9356C24.9396 32.9356 24.9559 32.9031 24.9966 32.8381C25.078 32.7162 25.1188 32.6431 25.1188 32.6431V32.6187C25.4282 32.0906 26.1042 30.8801 27.1223 28.8814C28.4416 26.2978 29.704 23.0723 29.704 23.0723C29.8259 23.7814 29.9946 24.4816 30.209 25.1685C30.437 25.9403 30.9175 26.7853 31.3003 27.6058C30.9908 28.0283 30.8035 28.2721 30.8035 28.2721C30.804 28.2783 30.8069 28.2841 30.8116 28.2883C30.5673 28.6133 30.2904 28.9627 30.0053 29.3039C28.9629 30.5388 27.7249 31.9525 27.5621 32.3587C27.3666 32.8381 27.4155 33.1956 27.7901 33.4718C28.067 33.683 28.5557 33.7155 29.0687 33.6749C30.0053 33.6099 30.665 33.3824 30.9827 33.2362C31.5685 33.0268 32.1222 32.7369 32.6278 32.375C33.6458 31.6275 34.2648 30.5551 34.2078 29.1414C34.1752 28.3614 33.9228 27.5815 33.6133 26.8503C33.7029 26.7203 33.8006 26.5822 33.8902 26.444C35.4946 24.096 36.7407 21.5205 36.7407 21.5205C36.8626 22.2296 37.0313 22.9298 37.2456 23.6167C37.4411 24.2748 37.8239 24.9979 38.1741 25.7047C36.6592 26.9315 35.7226 28.3533 35.3969 29.2876C34.7942 31.0182 35.2666 31.7981 36.1543 31.9769C36.5534 32.0581 37.1235 31.8712 37.547 31.6925C38.1762 31.4835 38.7695 31.1794 39.3061 30.7907C40.3242 30.0432 41.3096 28.9951 41.2445 27.5733C41.22 26.9315 41.0409 26.2897 40.8047 25.6722C42.0833 25.136 43.7448 24.8435 45.8623 25.0872C50.3987 25.6153 51.2864 28.4427 51.1154 29.6207C50.9443 30.7988 49.9915 31.4569 49.6738 31.6519C49.3562 31.8469 49.2585 31.92 49.2829 32.0662C49.3236 32.2775 49.4702 32.2694 49.739 32.2206C50.1136 32.1556 52.1171 31.2619 52.2067 29.0764C52.337 26.314 49.6738 23.2754 44.9583 23.2998H44.9501ZM9.99479 35.0561C8.49624 36.6891 6.39501 37.3066 5.49099 36.7866C4.52996 36.226 4.91274 33.8211 6.7615 32.0825C7.88541 31.0263 9.3351 30.0513 10.2961 29.4501C10.516 29.3201 10.8337 29.1251 11.2246 28.8895C11.2897 28.8489 11.3223 28.8327 11.3223 28.8327C11.3956 28.7839 11.4771 28.7433 11.5585 28.6945C12.2345 31.1644 11.5829 33.3418 10.0029 35.0561H9.99479ZM20.9407 27.6302C20.4195 28.9058 19.32 32.1556 18.6522 31.985C18.0821 31.8387 17.7319 29.3608 18.5382 26.9234C18.9454 25.6966 19.8087 24.2341 20.3218 23.6654C21.1443 22.7474 22.0484 22.4549 22.2601 22.8205C22.5452 23.2998 21.2665 26.834 20.9407 27.6302ZM29.9809 31.9362C29.761 32.05 29.5574 32.1231 29.4597 32.0662C29.3864 32.0256 29.5493 31.8712 29.5493 31.8712C29.5493 31.8712 30.6813 30.6607 31.1293 30.1082C31.3899 29.7832 31.6912 29.4014 32.017 28.9789C32.017 29.0195 32.0251 29.0601 32.0251 29.1089C32.017 30.5632 30.6162 31.5463 29.9809 31.9362ZM36.9524 30.352C36.7895 30.2382 36.814 29.8564 37.3596 28.6702C37.5714 28.2071 38.0601 27.4271 38.9071 26.6796C39.003 26.9626 39.0552 27.2585 39.0618 27.5571C39.0537 29.3851 37.7424 30.0676 36.9524 30.352Z" fill="#CD6799"/>
</svg>
