<svg width="52" height="53" viewBox="0 0 52 53" fill="none" xmlns="http://www.w3.org/2000/svg">
<path d="M50.3552 0.686981H1.40967C0.733001 0.686981 0.186035 1.23517 0.186035 1.91062V50.8561C0.186035 51.5316 0.733001 52.0797 1.40967 52.0797H50.3552C51.0318 52.0797 51.5788 51.5316 51.5788 50.8561V1.91062C51.5788 1.23517 51.0318 0.686981 50.3552 0.686981ZM30.777 28.1515H24.6588V47.1852H19.7642V28.1515H13.646V23.9361H30.777V28.1515ZM32.1487 46.0986V41.0107C32.1487 41.0107 34.9275 43.1056 38.262 43.1056C41.5964 43.1056 41.4679 40.9251 41.4679 40.6265C41.4679 37.4622 32.0202 37.4622 32.0202 30.452C32.0202 20.9186 45.7861 24.6801 45.7861 24.6801L45.6148 29.2124C45.6148 29.2124 43.3058 27.6731 40.6982 27.6731C38.0906 27.6731 37.1497 28.9126 37.1497 30.2378C37.1497 33.6579 46.683 33.3165 46.683 40.1995C46.6843 50.801 32.1487 46.0986 32.1487 46.0986Z" fill="#3178C6"/>
</svg>
